<?xml version="1.0" encoding="utf-8"?>
<!-- Generator: Adobe Illustrator 16.0.0, SVG Export Plug-In . SVG Version: 6.00 Build 0)  -->
<!DOCTYPE svg PUBLIC "-//W3C//DTD SVG 1.1//EN" "http://www.w3.org/Graphics/SVG/1.1/DTD/svg11.dtd">
<svg version="1.1" id="Layer_1" xmlns="http://www.w3.org/2000/svg" xmlns:xlink="http://www.w3.org/1999/xlink" x="0px" y="0px"
	 width="481px" height="292px" viewBox="0 0 481 292" enable-background="new 0 0 481 292" xml:space="preserve">
<path fill="none" stroke="#000000" stroke-width="3" stroke-miterlimit="10" d="M83.797,110.998C56.294,110.998,34,109.5,34,145.5
	h99.595C133.594,109.5,111.299,110.998,83.797,110.998z"/>
<circle fill="none" stroke="#000000" stroke-width="3" stroke-miterlimit="10" cx="72" cy="70.336" r="3.208"/>
<circle fill="none" stroke="#000000" stroke-width="3" stroke-miterlimit="10" cx="93" cy="70.336" r="3.208"/>
<line fill="none" stroke="#000000" stroke-width="3" stroke-miterlimit="10" x1="71" y1="89.5" x2="95" y2="89.5"/>
<path fill="none" stroke="#000000" stroke-width="3" stroke-miterlimit="10" d="M42.25,42.125l3.255,30.416L61.335,56.71H99.25
	l19.895,17.895L99.25,56.71H61.335L45.505,72.541c0.01,0.101,0.645,7.965,1.257,9.707c0.347,0.988,0.757,1.955,1.227,2.897
	c1.123,2.254,2.587,4.373,4.342,6.316c6.766,7.493,17.848,12.378,30.371,12.378c20.602,0,37.3-18.216,37.3-34.518l3.749-28.196
	L42.25,42.125z"/>
</svg>
