<?xml version="1.0" encoding="utf-8"?>
<!-- Generator: Adobe Illustrator 16.0.0, SVG Export Plug-In . SVG Version: 6.00 Build 0)  -->
<!DOCTYPE svg PUBLIC "-//W3C//DTD SVG 1.1//EN" "http://www.w3.org/Graphics/SVG/1.1/DTD/svg11.dtd">
<svg version="1.1" xmlns="http://www.w3.org/2000/svg" xmlns:xlink="http://www.w3.org/1999/xlink" x="0px" y="0px" width="481px"
	 height="292px" viewBox="0 0 481 292" enable-background="new 0 0 481 292" xml:space="preserve">
<g id="Layer_1">
	<path fill="none" stroke="#000000" stroke-width="3" stroke-miterlimit="10" d="M479.5,278.5c0,6.627-5.372,12-12,12h-454
		c-6.627,0-12-5.373-12-12v-265c0-6.627,5.373-12,12-12h454c6.628,0,12,5.373,12,12V278.5z"/>
	<path fill="none" stroke="#000000" stroke-width="3" stroke-miterlimit="10" d="M146.5,134.5c0,6.627-5.373,12-12,12h-102
		c-6.627,0-12-5.373-12-12v-102c0-6.627,5.373-12,12-12h102c6.627,0,12,5.373,12,12V134.5z"/>
	<text transform="matrix(1 0 0 1 163.012 48.0488)" font-family="'MyriadPro-Regular'" font-size="32">Rafael Maia</text>
	<text transform="matrix(1 0 0 1 20.5002 260.6758)" font-family="'MyriadPro-Regular'" font-size="22.303">Matrícula:</text>
	<text transform="matrix(1 0 0 1 203.012 260.6758)" font-family="'MyriadPro-Regular'" font-size="22">Rendimento: </text>
	<circle fill="none" stroke="#000000" stroke-width="3" stroke-miterlimit="10" cx="83" cy="72.335" r="32"/>
	<path fill="none" stroke="#000000" stroke-width="3" stroke-miterlimit="10" d="M83.797,110.998C56.294,110.998,34,109.5,34,145.5
		h99.595C133.594,109.5,111.299,110.998,83.797,110.998z"/>
	<circle fill="none" stroke="#000000" stroke-width="3" stroke-miterlimit="10" cx="72" cy="70.335" r="3.208"/>
	<circle fill="none" stroke="#000000" stroke-width="3" stroke-miterlimit="10" cx="93" cy="70.335" r="3.208"/>
	<ellipse fill="none" stroke="#000000" stroke-width="3" stroke-miterlimit="10" cx="86" cy="89.669" rx="8.333" ry="3.333"/>
	<path fill="none" stroke="#000000" stroke-width="3" stroke-miterlimit="10" d="M62,98.668c0,0-24,0.667-23.333,9.333
		s-14.667-84.667,44-82s39.333,70,44,76s-26.667-2-26.667-2"/>
	<text transform="matrix(1 0 0 1 375.6667 258.501)" font-family="'MyriadPro-Regular'" font-size="12">80</text>
</g>
<g id="Layer_2">
</g>
</svg>
